# xmcd CD database file
#
# Track frame offsets:
#	150
#	16194
#	32661
#	46984
#	62134
#	77831
#	89981
#	106396
#	122805
#	138371
#	154519
#	169475
#
# Disc length: 2540 seconds
#
# Revision: 0
# Processed by: cddbd v1.5.1PL2 Copyright (c) Steve Scherf et al.
# Submitted via: CDex 1.51
#
DISCID=9f09ea0c
DTITLE=haq. - POPTONE
DYEAR=2005
DGENRE=Pop
TTITLE0=calpizz
TTITLE1=sprout
TTITLE2=ringer tail
TTITLE3=higher cheaptune
TTITLE4=unbossa
TTITLE5=lamb8
TTITLE6=da fun
TTITLE7=talk
TTITLE8=pepper daugher
TTITLE9=buyorlease
TTITLE10=reborn/see/traceon
TTITLE11=11up
EXTD=YEAR: 2005
EXTT0=
EXTT1=
EXTT2=
EXTT3=
EXTT4=
EXTT5=
EXTT6=
EXTT7=
EXTT8=
EXTT9=
EXTT10=
EXTT11=
PLAYORDER=
